# xmcd
#
# Track frame offsets:
# 150
# 22742
# 40421
# 63082
# 88528
# 105722
# 122293
# 146352
# 161183
# 181450
# 209838
# 239852
# 263083
# 278460
#
# Disc length: 4023 seconds
#
#
# Revision: 1
# Processed by: cddbd v1.5.1PL2 Copyright (c) Steve Scherf et al.
# Submitted via: FreeRIP 2.944 
#
DISCID=c10fb50e
DTITLE=Marla Glen Live - Greatest Hits live
DYEAR=1900
DGENRE=Rhythmic Soul
TTITLE0=Cost of freedom
TTITLE1=Our world
TTITLE2=Promises
TTITLE3=Believer
TTITLE4=What about our kids
TTITLE5=Movin'
TTITLE6=Break free
TTITLE7=Lay with you
TTITLE8=Mad
TTITLE9=Hanging around
TTITLE10=Child (+ grand intermezzo)
TTITLE11=Friends
TTITLE12=Same way
TTITLE13=Also love you
EXTD=
EXTT0=
EXTT1=
EXTT2=
EXTT3=
EXTT4=
EXTT5=
EXTT6=
EXTT7=
EXTT8=
EXTT9=
EXTT10=
EXTT11=
EXTT12=
EXTT13=
PLAYORDER=
